<svg width="50" height="50" viewBox="0 0 50 50" fill="none" xmlns="http://www.w3.org/2000/svg">
<g clip-path="url(#clip0_1546_217)">
<path fill-rule="evenodd" clip-rule="evenodd" d="M24.75 49.5C38.419 49.5 49.5 38.419 49.5 24.75C49.5 11.081 38.419 0 24.75 0C11.081 0 0 11.081 0 24.75C0 38.419 11.081 49.5 24.75 49.5ZM24.3395 15.0661C25.9881 15.0661 27.3069 16.3502 27.3069 18.0623C27.3069 19.6673 25.9881 20.9514 24.3395 20.9514C22.691 20.9514 21.3721 19.6673 21.3721 18.0623C21.2622 16.4572 22.691 15.0661 24.3395 15.0661ZM24.3395 25.1245C28.2961 25.1245 31.5932 21.9144 31.5932 18.0623C31.5932 14.1031 28.2961 11 24.3395 11C20.383 11 17.0859 14.2101 17.0859 18.0623C17.0859 21.9144 20.2731 25.1245 24.3395 25.1245ZM31.482 29.1893C30.1631 30.0454 28.7344 30.5804 27.3056 30.9014L31.1523 34.8605C32.0315 35.7166 32.0315 37.0006 31.1523 37.8567C30.3829 38.7127 29.0641 38.7127 28.1849 37.8567L24.2283 34.0045L20.2718 37.8567C19.8321 38.2847 19.2826 38.4987 18.7331 38.4987C18.1836 38.4987 17.6341 38.2847 17.1945 37.8567C16.3152 37.0006 16.3152 35.7166 17.1945 34.8605L21.2609 30.9014C19.8321 30.5804 18.4034 30.0454 17.0846 29.1893C16.0954 28.5473 15.7657 27.2633 16.4251 26.3002C17.0845 25.3372 18.4034 25.0162 19.3925 25.6582C22.3599 27.4773 26.2066 27.4773 29.174 25.6582C30.1631 25.0162 31.482 25.3372 32.1414 26.3002C32.8008 27.2633 32.4711 28.5473 31.482 29.1893Z" fill="black"/>
</g>
<defs>
<clipPath id="clip0_1546_217">
<rect width="50" height="50" fill="white"/>
</clipPath>
</defs>
</svg>
