<svg width="50" height="50" viewBox="0 0 50 50" fill="none" xmlns="http://www.w3.org/2000/svg">
<g clip-path="url(#clip0_1546_213)">
<path fill-rule="evenodd" clip-rule="evenodd" d="M50 24.75C50 38.419 38.919 49.5 25.25 49.5C11.581 49.5 0.5 38.419 0.5 24.75C0.5 11.081 11.581 0 25.25 0C38.919 0 50 11.081 50 24.75ZM38.1266 33.1749C38.1589 33.2317 38.1936 33.3027 38.2309 33.3882C38.2682 33.4735 38.3056 33.6244 38.3436 33.8402C38.3806 34.0566 38.3783 34.2501 38.3354 34.4207C38.2925 34.5911 38.1592 34.7478 37.9348 34.89C37.7109 35.0319 37.3952 35.1035 36.9896 35.1035L32.888 35.1716C32.6313 35.2285 32.3323 35.2 31.991 35.0863C31.6492 34.9726 31.3714 34.8474 31.1575 34.7108L30.8372 34.506C30.5169 34.2668 30.1431 33.9031 29.7157 33.4138C29.2885 32.9247 28.9227 32.4841 28.6183 32.0914C28.3137 31.6991 27.988 31.369 27.6408 31.1016C27.2933 30.834 26.9916 30.7459 26.7353 30.8369C26.7032 30.8485 26.6607 30.868 26.6075 30.8966C26.554 30.925 26.4628 31.0077 26.3347 31.1442C26.2069 31.2803 26.0921 31.4483 25.9904 31.6473C25.8886 31.8465 25.7975 32.1423 25.7177 32.5347C25.6378 32.9271 25.6028 33.3679 25.6137 33.857C25.6137 34.0274 25.5951 34.1841 25.5576 34.3263C25.5206 34.4682 25.4805 34.5737 25.4376 34.6416L25.3738 34.7272C25.1814 34.9432 24.8983 35.0683 24.5246 35.1027H22.682C21.9236 35.1479 21.1439 35.0542 20.3428 34.8208C19.5416 34.5877 18.8394 34.2862 18.2358 33.9167C17.6323 33.5467 17.0822 33.1713 16.5854 32.7901C16.0887 32.409 15.7123 32.082 15.4559 31.8089L15.0553 31.3994C14.9485 31.2856 14.8016 31.1153 14.6146 30.8874C14.4277 30.66 14.0459 30.1423 13.4691 29.3345C12.8922 28.527 12.3261 27.668 11.7707 26.7577C11.2154 25.8481 10.5611 24.6476 9.80808 23.1573C9.05508 21.667 8.35815 20.1198 7.71728 18.5156C7.65314 18.3337 7.62109 18.1801 7.62109 18.0549C7.62109 17.9297 7.63725 17.8387 7.6693 17.7818L7.73344 17.6795C7.89371 17.4633 8.1981 17.3551 8.64671 17.3551L13.0368 17.3211C13.1651 17.3438 13.2877 17.3806 13.4053 17.4319C13.5227 17.4833 13.6083 17.5316 13.6616 17.577L13.7418 17.6283C13.9127 17.7535 14.0409 17.9354 14.1263 18.1743C14.3398 18.7431 14.5854 19.332 14.8633 19.9407C15.1411 20.5493 15.3599 21.013 15.5201 21.3314L15.7764 21.8264C16.0862 22.509 16.3853 23.1006 16.6736 23.6011C16.9621 24.1016 17.2211 24.4913 17.4508 24.7701C17.6805 25.0489 17.9021 25.2677 18.1157 25.4271C18.3292 25.5864 18.5107 25.6662 18.6604 25.6662C18.8098 25.6662 18.9542 25.6373 19.0931 25.5806C19.1143 25.5694 19.141 25.5408 19.173 25.4953C19.2051 25.4499 19.2692 25.3248 19.3654 25.12C19.4615 24.9153 19.5335 24.6479 19.5818 24.318C19.63 23.9881 19.6805 23.5274 19.7339 22.9357C19.7873 22.3442 19.7873 21.6331 19.7339 20.8025C19.7127 20.3477 19.6645 19.9324 19.5898 19.5571C19.515 19.1817 19.4403 18.9199 19.3654 18.772L19.2692 18.5671C19.0021 18.1803 18.5483 17.9357 17.9074 17.8334C17.7685 17.8109 17.7953 17.6743 17.9877 17.4239C18.1691 17.2079 18.3721 17.0371 18.5964 16.9122C19.1625 16.6164 20.4391 16.4797 22.4257 16.5024C23.3018 16.5139 24.0227 16.5877 24.5889 16.7242C24.8022 16.7812 24.9815 16.8579 25.1256 16.9547C25.2695 17.0515 25.3792 17.1879 25.4541 17.3642C25.5286 17.5407 25.5851 17.7228 25.6219 17.9103C25.6591 18.0981 25.678 18.3569 25.678 18.6868C25.678 19.0167 25.673 19.3297 25.6621 19.6255C25.6511 19.921 25.638 20.3221 25.6219 20.8284C25.606 21.3346 25.5981 21.8039 25.5981 22.2363C25.5981 22.3615 25.5931 22.6002 25.582 22.953C25.5712 23.3056 25.5689 23.579 25.5738 23.7722C25.5792 23.9657 25.5981 24.1958 25.63 24.4633C25.662 24.7307 25.7233 24.9526 25.8143 25.129C25.9049 25.3053 26.0252 25.4446 26.1746 25.547C26.2604 25.5698 26.351 25.5925 26.4473 25.6154C26.5433 25.6383 26.682 25.5757 26.8636 25.4276C27.0455 25.2795 27.2481 25.0835 27.4726 24.8389C27.6967 24.5945 27.9745 24.2132 28.3055 23.6957C28.637 23.178 29 22.5666 29.3952 21.8612C30.0363 20.6781 30.6074 19.3982 31.1098 18.0216C31.1525 17.9079 31.2058 17.8081 31.2696 17.723C31.3338 17.6377 31.3925 17.5779 31.446 17.544L31.5097 17.4926L31.59 17.4499L31.7984 17.3986C31.9374 17.3644 32.0442 17.3618 32.1189 17.39L36.7332 17.356C37.1499 17.2992 37.4916 17.3133 37.7589 17.3986C38.0257 17.484 38.1912 17.5778 38.2554 17.6802L38.3508 17.8504C38.5966 18.5786 37.7954 20.2507 35.9474 22.8675C35.6911 23.2316 35.3442 23.7149 34.906 24.3179C34.0731 25.4558 33.5921 26.2005 33.464 26.5532C33.2828 27.0199 33.3571 27.4806 33.6887 27.9357C33.87 28.1746 34.3028 28.6412 34.9864 29.3352H35.0025L35.0186 29.3524L35.0346 29.3691L35.0664 29.4032C36.5724 30.8936 37.5927 32.1507 38.1266 33.1749Z" fill="black"/>
</g>
<defs>
<clipPath id="clip0_1546_213">
<rect width="50" height="50" fill="white"/>
</clipPath>
</defs>
</svg>
